<svg xmlns="http://www.w3.org/2000/svg" xmlns:xlink="http://www.w3.org/1999/xlink" id="customer_x5F_support" x="0" y="0" enable-background="new 0 0 800 600" version="1.1" viewBox="0 0 800 600" xml:space="preserve"><linearGradient id="SVGID_1_" x1="540" x2="540" y1="414" y2="338.909" gradientUnits="userSpaceOnUse"><stop offset="0" style="stop-color:#0e77ff"/><stop offset=".132" style="stop-color:#218cff"/><stop offset=".353" style="stop-color:#3ba9ff"/><stop offset=".574" style="stop-color:#4dbdff"/><stop offset=".791" style="stop-color:#58caff"/><stop offset="1" style="stop-color:#5cceff"/></linearGradient><rect width="8" height="72" x="536" y="342" fill="url(#SVGID_1_)"/><linearGradient id="SVGID_2_" x1="601.195" x2="398.303" y1="144.805" y2="347.697" gradientUnits="userSpaceOnUse"><stop offset="0" style="stop-color:#ffdc2e"/><stop offset=".09" style="stop-color:#ffe359"/><stop offset=".199" style="stop-color:#ffea84"/><stop offset=".312" style="stop-color:#fff1aa"/><stop offset=".43" style="stop-color:#fff6c9"/><stop offset=".552" style="stop-color:#fffae1"/><stop offset=".682" style="stop-color:#fffdf2"/><stop offset=".824" style="stop-color:#fffefc"/><stop offset="1" style="stop-color:#fff"/></linearGradient><circle cx="500" cy="246" r="124" fill="url(#SVGID_2_)"/><linearGradient id="SVGID_3_" x1="348" x2="348" y1="458.333" y2="428.089" gradientUnits="userSpaceOnUse"><stop offset="0" style="stop-color:#ebebeb"/><stop offset=".304" style="stop-color:#e2e2e2"/><stop offset=".799" style="stop-color:#cacaca"/><stop offset="1" style="stop-color:#bebebe"/></linearGradient><path fill="url(#SVGID_3_)" d="M384,450v-22h-72v22c0,4.42-3.58,8-8,8h8h72h8C387.58,458,384,454.42,384,450z"/><linearGradient id="SVGID_4_" x1="436.478" x2="259.038" y1="464" y2="464" gradientUnits="userSpaceOnUse"><stop offset="0" style="stop-color:#e6e6e6"/><stop offset=".41" style="stop-color:#ddd"/><stop offset="1" style="stop-color:#c8c8c8"/></linearGradient><path fill="url(#SVGID_4_)" d="M434,470H264c-2.209,0-4-1.791-4-4v-4c0-2.209,1.791-4,4-4h170c1.105,0,2,0.896,2,2v8	C436,469.105,435.105,470,434,470z"/><linearGradient id="SVGID_5_" x1="348" x2="348" y1="254.652" y2="429.47" gradientUnits="userSpaceOnUse"><stop offset="0" style="stop-color:#45a0ff"/><stop offset=".052" style="stop-color:#4b96fe"/><stop offset=".371" style="stop-color:#6c60f9"/><stop offset=".647" style="stop-color:#8538f6"/><stop offset=".866" style="stop-color:#9420f4"/><stop offset="1" style="stop-color:#9917f3"/></linearGradient><path fill="url(#SVGID_5_)" d="M468,418c0,6.627-5.373,12-12,12H240c-6.627,0-12-5.373-12-12V266c0-6.627,5.373-12,12-12h216	c6.627,0,12,5.373,12,12V418z"/><path d="M458,396c0,2.209-1.791,4-4,4H242c-2.209,0-4-1.791-4-4V270c0-2.209,1.791-4,4-4h212c2.209,0,4,1.791,4,4	V396z" opacity=".15"/><linearGradient id="SVGID_6_" x1="228" x2="468" y1="421" y2="421" gradientUnits="userSpaceOnUse"><stop offset="0" style="stop-color:#e6e6e6"/><stop offset=".332" style="stop-color:#ddd"/><stop offset=".871" style="stop-color:#c5c5c5"/><stop offset="1" style="stop-color:#bebebe"/></linearGradient><path fill="url(#SVGID_6_)" d="M456,434H240c-6.627,0-12-5.372-12-12v-14h240v14C468,428.628,462.627,434,456,434z"/><linearGradient id="SVGID_7_" x1="348" x2="348" y1="265.5" y2="399.008" gradientUnits="userSpaceOnUse"><stop offset="0" style="stop-color:#55c2ff"/><stop offset=".292" style="stop-color:#80d9ff"/><stop offset=".602" style="stop-color:#a8edff"/><stop offset=".849" style="stop-color:#c0faff"/><stop offset="1" style="stop-color:#c9ffff"/></linearGradient><path fill="url(#SVGID_7_)" d="M458,394c0,2.209-1.791,4-4,4H242c-2.209,0-4-1.791-4-4V268c0-2.209,1.791-4,4-4h212	c2.209,0,4,1.791,4,4V394z"/><linearGradient id="SVGID_8_" x1="348" x2="348" y1="434.167" y2="442.167" gradientUnits="userSpaceOnUse"><stop offset="0" style="stop-color:#000;stop-opacity:.05"/><stop offset="1" style="stop-color:#302926;stop-opacity:0"/></linearGradient><rect width="72" height="8" x="312" y="434" fill="url(#SVGID_8_)"/><path d="M258,290.187v67.685c0,1.763,2.023,2.759,3.42,1.684l20.42-15.801c1.4-1.077,3.117-1.755,4.884-1.755H398	c2.209,0,4-1.604,4-3.813v-48c0-2.209-1.791-4.187-4-4.187H262C259.791,286,258,287.978,258,290.187z" opacity=".15"/><linearGradient id="SVGID_9_" x1="363" x2="363" y1="355.263" y2="399.161" gradientUnits="userSpaceOnUse"><stop offset="0" style="stop-color:#fff"/><stop offset=".597" style="stop-color:#f6f6f6"/><stop offset="1" style="stop-color:#ededed"/></linearGradient><path fill="url(#SVGID_9_)" d="M430,356H300c-2.209,0-4,1.791-4,4v38h134V356z"/><linearGradient id="SVGID_10_" x1="330" x2="330" y1="284" y2="354.868" gradientUnits="userSpaceOnUse"><stop offset="0" style="stop-color:#fff"/><stop offset=".597" style="stop-color:#f6f6f6"/><stop offset="1" style="stop-color:#ededed"/></linearGradient><path fill="url(#SVGID_10_)" d="M258,288v67.685c0,1.763,2.023,2.759,3.42,1.684l20.42-15.708c1.4-1.077,3.117-1.661,4.884-1.661	H398c2.209,0,4-1.791,4-4v-48c0-2.209-1.791-4-4-4H262C259.791,284,258,285.791,258,288z"/><path fill="#000C3F" d="M328,256c0,41.98-34.02,76-76,76c-8.4,0-16.46-1.36-24-3.88v-4c7.54,2.52,15.6,3.88,24,3.88	c41.3,0,74.9-32.92,75.98-73.96C328,254.68,328,255.34,328,256z" opacity=".15"/><path fill="#B6B9B9" d="M390,298c0,1.105-0.895,2-2,2h-76c-1.105,0-2-0.895-2-2l0,0c0-1.105,0.895-2,2-2h76	C389.105,296,390,296.895,390,298L390,298z"/><path fill="#B6B9B9" d="M390,310c0,1.105-0.895,2-2,2h-92c-1.105,0-2-0.895-2-2l0,0c0-1.105,0.895-2,2-2h92	C389.105,308,390,308.895,390,310L390,310z"/><path fill="#B6B9B9" d="M336,322c0,1.105-0.895,2-2,2h-60c-1.105,0-2-0.895-2-2l0,0c0-1.105,0.895-2,2-2h60	C335.105,320,336,320.895,336,322L336,322z"/><path fill="#B6B9B9" d="M370,322c0,1.105-0.895,2-2,2h-20c-1.105,0-2-0.895-2-2l0,0c0-1.105,0.895-2,2-2h20	C369.105,320,370,320.895,370,322L370,322z"/><path fill="#B6B9B9" d="M406,370c0,1.105-0.895,2-2,2h-94c-1.105,0-2-0.895-2-2l0,0c0-1.105,0.895-2,2-2h94	C405.105,368,406,368.895,406,370L406,370z"/><path fill="#B6B9B9" d="M334,382c0,1.105-0.895,2-2,2h-22c-1.105,0-2-0.895-2-2l0,0c0-1.105,0.895-2,2-2h22	C333.105,380,334,380.895,334,382L334,382z"/><linearGradient id="SVGID_11_" x1="252" x2="252" y1="173.829" y2="332.919" gradientUnits="userSpaceOnUse"><stop offset="0" style="stop-color:#ec6bf7"/><stop offset=".207" style="stop-color:#e36af8"/><stop offset=".544" style="stop-color:#cb68fa"/><stop offset=".967" style="stop-color:#a364ff"/><stop offset="1" style="stop-color:#a064ff"/></linearGradient><circle cx="252" cy="252" r="76" fill="url(#SVGID_11_)"/><linearGradient id="SVGID_12_" x1="252" x2="252" y1="182.057" y2="324.401" gradientUnits="userSpaceOnUse"><stop offset="0" style="stop-color:#fff"/><stop offset=".683" style="stop-color:#f6f6f6"/><stop offset="1" style="stop-color:#f0f0f0"/></linearGradient><path fill="url(#SVGID_12_)" d="M320,252c0,26-14.58,48.58-36,60.02c-9.54,5.1-20.44,7.98-32,7.98s-22.46-2.88-32-7.98	c-5.9-3.16-11.3-7.16-16-11.86c-12.36-12.3-20-29.34-20-48.16c0-37.56,30.44-68,68-68S320,214.44,320,252z"/><linearGradient id="SVGID_13_" x1="218" x2="218" y1="243.499" y2="311.037" gradientUnits="userSpaceOnUse"><stop offset="0" style="stop-color:#ffb340"/><stop offset="1" style="stop-color:#ff8b22"/></linearGradient><path fill="url(#SVGID_13_)" d="M232,246v16h-12v50.02c-5.9-3.16-11.3-7.16-16-11.86V258c0-6.62,5.38-12,12-12H232z"/><linearGradient id="SVGID_14_" x1="331.077" x2="272.362" y1="236" y2="236" gradientUnits="userSpaceOnUse"><stop offset="0" style="stop-color:#ffb340"/><stop offset="1" style="stop-color:#ff8b22"/></linearGradient><path fill="url(#SVGID_14_)" d="M314,210v36h-40v16h48c4.418,0,8-3.582,8-8v-44H314z"/><linearGradient id="SVGID_15_" x1="252" x2="252" y1="246" y2="319.472" gradientUnits="userSpaceOnUse"><stop offset="0" style="stop-color:#ffb340"/><stop offset="1" style="stop-color:#ff8b22"/></linearGradient><path fill="url(#SVGID_15_)" d="M284,254v58.02c-9.54,5.1-20.44,7.98-32,7.98s-22.46-2.88-32-7.98V254c0-4.42,3.58-8,8-8h48	C280.42,246,284,249.58,284,254z"/><linearGradient id="SVGID_16_" x1="362" x2="362" y1="204.267" y2="220.267" gradientTransform="matrix(-1 0 0 1 650 0)" gradientUnits="userSpaceOnUse"><stop offset="0" style="stop-color:#f9cdaf"/><stop offset=".536" style="stop-color:#f8caab"/><stop offset="1" style="stop-color:#f7c4a1"/></linearGradient><path fill="url(#SVGID_16_)" d="M288,220L288,220c4.418,0,8-3.582,8-8v0c0-4.418-3.582-8-8-8h-8v8C280,216.418,283.582,220,288,220z"/><linearGradient id="SVGID_17_" x1="362" x2="362" y1="208.133" y2="216.133" gradientTransform="matrix(-1 0 0 1 650 0)" gradientUnits="userSpaceOnUse"><stop offset="0" style="stop-color:#efbc9a"/><stop offset=".715" style="stop-color:#f3c09e"/><stop offset="1" style="stop-color:#f7c4a1"/></linearGradient><path fill="url(#SVGID_17_)" d="M288,216L288,216c2.209,0,4-1.791,4-4v0c0-2.209-1.791-4-4-4h-4v4C284,214.209,285.791,216,288,216z"/><path d="M284,208v2h4c1.1,0,2.1,0.44,2.82,1.18c0.5,0.5,0.88,1.12,1.04,1.82c0.1-0.32,0.14-0.66,0.14-1	c0-1.1-0.44-2.1-1.18-2.82c-0.72-0.74-1.72-1.18-2.82-1.18H284z" opacity=".05"/><linearGradient id="SVGID_18_" x1="216" x2="216" y1="204.267" y2="220.267" gradientUnits="userSpaceOnUse"><stop offset="0" style="stop-color:#f9cdaf"/><stop offset=".536" style="stop-color:#f8caab"/><stop offset="1" style="stop-color:#f7c4a1"/></linearGradient><path fill="url(#SVGID_18_)" d="M216,220L216,220c-4.418,0-8-3.582-8-8v0c0-4.418,3.582-8,8-8h8v8C224,216.418,220.418,220,216,220z"/><linearGradient id="SVGID_19_" x1="216" x2="216" y1="208.133" y2="216.133" gradientUnits="userSpaceOnUse"><stop offset="0" style="stop-color:#efbc9a"/><stop offset=".715" style="stop-color:#f3c09e"/><stop offset="1" style="stop-color:#f7c4a1"/></linearGradient><path fill="url(#SVGID_19_)" d="M216,216L216,216c-2.209,0-4-1.791-4-4v0c0-2.209,1.791-4,4-4h4v4C220,214.209,218.209,216,216,216z"/><path d="M220,208v2h-4c-1.1,0-2.1,0.44-2.82,1.18c-0.5,0.5-0.88,1.12-1.04,1.82c-0.1-0.32-0.14-0.66-0.14-1	c0-1.1,0.44-2.1,1.18-2.82c0.72-0.74,1.72-1.18,2.82-1.18H220z" opacity=".05"/><linearGradient id="SVGID_20_" x1="244" x2="260" y1="246" y2="246" gradientUnits="userSpaceOnUse"><stop offset="0" style="stop-color:#f9d6bd"/><stop offset="1" style="stop-color:#f9ceb2"/></linearGradient><path fill="url(#SVGID_20_)" d="M252,254L252,254c-4.418,0-8-3.582-8-8v-8h16v8C260,250.418,256.418,254,252,254z"/><linearGradient id="SVGID_21_" x1="220" x2="284" y1="212" y2="212" gradientUnits="userSpaceOnUse"><stop offset="0" style="stop-color:#ffdec7"/><stop offset="1" style="stop-color:#ffd8bd"/></linearGradient><path fill="url(#SVGID_21_)" d="M252,242L252,242c-17.673,0-32-14.327-32-32v-28h64v28C284,227.673,269.673,242,252,242z"/><circle cx="238" cy="210" r="6" fill="#FFF"/><linearGradient id="SVGID_22_" x1="238" x2="238" y1="206.75" y2="213.386" gradientUnits="userSpaceOnUse"><stop offset="0" style="stop-color:#4c4b4b"/><stop offset="1" style="stop-color:#3a3838"/></linearGradient><circle cx="238" cy="210" r="3" fill="url(#SVGID_22_)"/><circle cx="266" cy="210" r="6" fill="#FFF"/><linearGradient id="SVGID_23_" x1="266" x2="266" y1="206.75" y2="213.386" gradientUnits="userSpaceOnUse"><stop offset="0" style="stop-color:#4c4b4b"/><stop offset="1" style="stop-color:#3a3838"/></linearGradient><circle cx="266" cy="210" r="3" fill="url(#SVGID_23_)"/><linearGradient id="SVGID_24_" x1="251" x2="251" y1="212" y2="218.388" gradientUnits="userSpaceOnUse"><stop offset="0" style="stop-color:#f9cdaf"/><stop offset=".536" style="stop-color:#f8caab"/><stop offset="1" style="stop-color:#f7c4a1"/></linearGradient><path fill="url(#SVGID_24_)" d="M254,215c0,1.657-1.343,3-3,3l0,0c-1.657,0-3-1.343-3-3l0,0c0-1.657,1.343-3,3-3l0,0	C252.657,212,254,213.343,254,215L254,215z"/><linearGradient id="SVGID_25_" x1="242.002" x2="261.998" y1="229" y2="229" gradientUnits="userSpaceOnUse"><stop offset="0" style="stop-color:#f9808f"/><stop offset=".391" style="stop-color:#f97792"/><stop offset="1" style="stop-color:#f96099"/></linearGradient><path fill="url(#SVGID_25_)" d="M261.997,224c-0.01,4-1.741,6.457-4.357,8.24c-1.6,1.12-3.56,1.76-5.64,1.76s-4.04-0.64-5.64-1.76	c-2.616-1.783-4.348-4.24-4.357-8.24H261.997z"/><linearGradient id="SVGID_26_" x1="246.36" x2="257.64" y1="232" y2="232" gradientUnits="userSpaceOnUse"><stop offset="0" style="stop-color:#ea5770"/><stop offset=".552" style="stop-color:#ea4f79"/><stop offset="1" style="stop-color:#ea4684"/></linearGradient><path fill="url(#SVGID_26_)" d="M257.64,232.24c-1.6,1.12-3.56,1.76-5.64,1.76s-4.04-0.64-5.64-1.76c0.8-1.82,3.02-2.24,5.64-2.24	S256.84,230.42,257.64,232.24z"/><linearGradient id="SVGID_27_" x1="238" x2="238" y1="196" y2="200.129" gradientUnits="userSpaceOnUse"><stop offset="0" style="stop-color:#b16464"/><stop offset="1" style="stop-color:#936864"/></linearGradient><path fill="url(#SVGID_27_)" d="M244,198c0-1.105-0.895-2-2-2h-8c-1.105,0-2,0.895-2,2l0,0c0,1.105,0.895,2,2,2h8	C243.105,200,244,199.105,244,198L244,198z"/><linearGradient id="SVGID_28_" x1="266" x2="266" y1="196" y2="200.129" gradientUnits="userSpaceOnUse"><stop offset="0" style="stop-color:#b16464"/><stop offset="1" style="stop-color:#936864"/></linearGradient><path fill="url(#SVGID_28_)" d="M272,198c0-1.105-0.895-2-2-2h-8c-1.105,0-2,0.895-2,2l0,0c0,1.105,0.895,2,2,2h8	C271.105,200,272,199.105,272,198L272,198z"/><linearGradient id="SVGID_29_" x1="252" x2="252" y1="153.25" y2="209.324" gradientUnits="userSpaceOnUse"><stop offset="0" style="stop-color:#b16464"/><stop offset="1" style="stop-color:#936864"/></linearGradient><path fill="url(#SVGID_29_)" d="M288,172v32h-4v4h-2c-2.2,0-4-1.8-4-4v-12c0-2.209-1.791-4-4-4h-44c-2.209,0-4,1.791-4,4v12	c0,2.2-1.8,4-4,4h-2v-4h-4v-30c0-6.627,5.373-12,12-12h2c3.32,0,6,2.68,6,6v-2c0-6.627,5.373-12,12-12h22	C279.941,154,288,162.059,288,172z"/><path fill="#FFF" d="M252,258c-6.617,0-12-6-12-12h4c0,4,3.589,8,8,8s8-4,8-8h4C264,252,258.617,258,252,258z"/><rect width="20" height="2" x="242" y="222" fill="#FFF"/><linearGradient id="SVGID_30_" x1="244" x2="260" y1="243.5" y2="243.5" gradientUnits="userSpaceOnUse"><stop offset="0" style="stop-color:#302926;stop-opacity:0"/><stop offset="1" style="stop-color:#000;stop-opacity:.1"/></linearGradient><path fill="url(#SVGID_30_)" d="M260,241v4c-2.56,0.66-5.24,1-8,1s-5.44-0.34-8-1v-4c2.56,0.66,5.24,1,8,1S257.44,241.66,260,241z"/><linearGradient id="SVGID_31_" x1="212" x2="212" y1="312.708" y2="266.905" gradientUnits="userSpaceOnUse"><stop offset="0" style="stop-color:#c53b00;stop-opacity:.2"/><stop offset="1" style="stop-color:#db4a26;stop-opacity:0"/></linearGradient><path fill="url(#SVGID_31_)" d="M220,268v44.02c-5.9-3.16-11.3-7.16-16-11.86V268H220z"/><linearGradient id="SVGID_32_" x1="312" x2="332" y1="212" y2="212" gradientUnits="userSpaceOnUse"><stop offset="0" style="stop-color:#ffb93e"/><stop offset="1" style="stop-color:#ffa412"/></linearGradient><path fill="url(#SVGID_32_)" d="M332,212c0,1.105-0.895,2-2,2h-16c-1.105,0-2-0.895-2-2l0,0c0-1.105,0.895-2,2-2h16	C331.105,210,332,210.895,332,212L332,212z"/><linearGradient id="SVGID_33_" x1="316" x2="316" y1="177.188" y2="209.859" gradientUnits="userSpaceOnUse"><stop offset="0" style="stop-color:#f9d6bd"/><stop offset="1" style="stop-color:#f9ceb2"/></linearGradient><path fill="url(#SVGID_33_)" d="M327,186c-1.657,0-3,1.343-3,3v-4c0-1.657-1.343-3-3-3s-3,1.343-3,3v4c0-1.657-1.343-3-3-3	s-3,1.343-3,3v13c0,1.104-0.895,2-2,2h-5c-1.657,0-3,1.343-3,3s1.343,3,3,3h13h6h6v-21C330,187.343,328.657,186,327,186z"/><linearGradient id="SVGID_34_" x1="322" x2="322" y1="214.063" y2="209.9" gradientUnits="userSpaceOnUse"><stop offset="0" style="stop-color:#c53b00;stop-opacity:.2"/><stop offset="1" style="stop-color:#db4a26;stop-opacity:0"/></linearGradient><path fill="url(#SVGID_34_)" d="M332,212c0,1.105-0.895,2-2,2h-16c-1.105,0-2-0.895-2-2l0,0c0-1.105,0.895-2,2-2h16	C331.105,210,332,210.895,332,212L332,212z"/><path fill="#E56D00" d="M284,308.02v4c-9.54,5.1-20.44,7.98-32,7.98s-22.46-2.88-32-7.98	c-5.9-3.16-11.3-7.16-16-11.86v-3.98c4.72,4.68,10.1,8.68,16,11.84c9.54,5.1,20.44,7.98,32,7.98S274.46,313.12,284,308.02z" opacity=".2"/><linearGradient id="SVGID_35_" x1="530" x2="530" y1="418" y2="326.222" gradientUnits="userSpaceOnUse"><stop offset="0" style="stop-color:#0e77ff"/><stop offset=".132" style="stop-color:#218cff"/><stop offset=".353" style="stop-color:#3ba9ff"/><stop offset=".574" style="stop-color:#4dbdff"/><stop offset=".791" style="stop-color:#58caff"/><stop offset="1" style="stop-color:#5cceff"/></linearGradient><path fill="url(#SVGID_35_)" d="M540,418h-20v-78c0-5.523,4.477-10,10-10l0,0c5.523,0,10,4.477,10,10V418z"/><linearGradient id="SVGID_36_" x1="552" x2="552" y1="305.534" y2="418.139" gradientUnits="userSpaceOnUse"><stop offset="0" style="stop-color:#5cceff"/><stop offset=".19" style="stop-color:#5bcaff"/><stop offset=".387" style="stop-color:#57bdff"/><stop offset=".587" style="stop-color:#50a9ff"/><stop offset=".79" style="stop-color:#478cff"/><stop offset=".992" style="stop-color:#3c67ff"/><stop offset="1" style="stop-color:#3b65ff"/></linearGradient><path fill="url(#SVGID_36_)" d="M552,306L552,306c6.627,0,12,5.373,12,12v100h-24V318C540,311.373,545.373,306,552,306z"/><linearGradient id="SVGID_37_" x1="568" x2="568" y1="417.613" y2="355.148" gradientUnits="userSpaceOnUse"><stop offset="0" style="stop-color:#0e77ff"/><stop offset=".132" style="stop-color:#218cff"/><stop offset=".353" style="stop-color:#3ba9ff"/><stop offset=".574" style="stop-color:#4dbdff"/><stop offset=".791" style="stop-color:#58caff"/><stop offset="1" style="stop-color:#5cceff"/></linearGradient><path fill="url(#SVGID_37_)" d="M568,356L568,356c6.627,0,12,5.373,12,12v50h-24v-50C556,361.373,561.373,356,568,356z"/><linearGradient id="SVGID_38_" x1="535" x2="535" y1="422" y2="468.511" gradientUnits="userSpaceOnUse"><stop offset="0" style="stop-color:#7c483e"/><stop offset="1" style="stop-color:#896257"/></linearGradient><path fill="url(#SVGID_38_)" d="M570,470h-66c-8.837,0-16-7.163-16-16v-32h94v36C582,464.628,576.627,470,570,470z"/><linearGradient id="SVGID_39_" x1="588.233" x2="480.692" y1="420" y2="420" gradientUnits="userSpaceOnUse"><stop offset="0" style="stop-color:#b16464"/><stop offset="1" style="stop-color:#936864"/></linearGradient><path fill="url(#SVGID_39_)" d="M584,414H480v12h104c2.209,0,4-1.791,4-4v-4C588,415.791,586.209,414,584,414z"/><linearGradient id="SVGID_40_" x1="546" x2="546" y1="426.167" y2="430.004" gradientUnits="userSpaceOnUse"><stop offset="0" style="stop-color:#000;stop-opacity:.07"/><stop offset="1" style="stop-color:#302926;stop-opacity:0"/></linearGradient><rect width="72" height="4" x="510" y="426" fill="url(#SVGID_40_)"/><linearGradient id="SVGID_41_" x1="570" x2="570" y1="470.75" y2="425.663" gradientUnits="userSpaceOnUse"><stop offset="0" style="stop-color:#000;stop-opacity:.07"/><stop offset="1" style="stop-color:#302926;stop-opacity:0"/></linearGradient><path fill="url(#SVGID_41_)" d="M582,426v32c0,6.62-5.38,12-12,12h-12c6.62,0,12-5.38,12-12v-32H582z"/><linearGradient id="SVGID_42_" x1="471" x2="471" y1="215.333" y2="284.362" gradientUnits="userSpaceOnUse"><stop offset="0" style="stop-color:#ededed"/><stop offset="1" style="stop-color:#ddd"/></linearGradient><path fill="url(#SVGID_42_)" d="M520,282h-4v-18c0-24.813-20.188-45-45-45s-45,20.187-45,45v18h-4v-18c0-27.019,21.98-49,49-49	s49,21.981,49,49V282z"/><linearGradient id="SVGID_43_" x1="440.333" x2="419.664" y1="361" y2="361" gradientUnits="userSpaceOnUse"><stop offset="0" style="stop-color:#ededed"/><stop offset="1" style="stop-color:#ddd"/></linearGradient><path fill="url(#SVGID_43_)" d="M440,382h-20v-32c0-5.523,4.477-10,10-10h10V382z"/><linearGradient id="SVGID_44_" x1="422" x2="422" y1="279.75" y2="295.768" gradientUnits="userSpaceOnUse"><stop offset="0" style="stop-color:#ededed"/><stop offset="1" style="stop-color:#ddd"/></linearGradient><path fill="url(#SVGID_44_)" d="M424,296L424,296l2,0v-16h-2v0c-3.314,0-6,2.686-6,6v4C418,293.314,420.686,296,424,296z"/><linearGradient id="XMLID_3_" x1="429" x2="429" y1="272" y2="303.325" gradientUnits="userSpaceOnUse"><stop offset="0" style="stop-color:#575c72"/><stop offset=".431" style="stop-color:#515569"/><stop offset="1" style="stop-color:#434556"/></linearGradient><path id="XMLID_1_" fill="url(#XMLID_3_)" d="M434,297c0,2.761-2.239,5-5,5l0,0c-2.761,0-5-2.239-5-5v-18c0-2.761,2.239-5,5-5l0,0	c2.761,0,5,2.239,5,5V297z"/><linearGradient id="SVGID_45_" x1="470" x2="470" y1="339" y2="478.004" gradientUnits="userSpaceOnUse"><stop offset="0" style="stop-color:#ff7e45"/><stop offset=".198" style="stop-color:#fe7a4b"/><stop offset=".458" style="stop-color:#fc6d5b"/><stop offset=".75" style="stop-color:#f85876"/><stop offset="1" style="stop-color:#f44293"/></linearGradient><path fill="url(#SVGID_45_)" d="M510,478h-80V350c0-5.523,4.477-10,10-10h70V478z"/><linearGradient id="SVGID_46_" x1="458" x2="482" y1="340" y2="340" gradientUnits="userSpaceOnUse"><stop offset="0" style="stop-color:#f9d6bd"/><stop offset="1" style="stop-color:#f9ceb2"/></linearGradient><path fill="url(#SVGID_46_)" d="M470,350L470,350c-6.627,0-12-5.373-12-12v-8h24v8C482,344.628,476.627,350,470,350z"/><linearGradient id="SVGID_47_" x1="430" x2="510" y1="296" y2="296" gradientUnits="userSpaceOnUse"><stop offset="0" style="stop-color:#ffdec7"/><stop offset="1" style="stop-color:#ffd8bd"/></linearGradient><path fill="url(#SVGID_47_)" d="M470,334L470,334c-22.091,0-40-17.909-40-40v-36h80v36C510,316.092,492.091,334,470,334z"/><path fill="#FFF" d="M458,292c0,3.314-2.686,6-6,6h-8c-3.314,0-6-2.686-6-6v-8c0-3.314,2.686-6,6-6h8c3.314,0,6,2.686,6,6V292z"/><linearGradient id="SVGID_48_" x1="448" x2="448" y1="283.792" y2="292.514" gradientUnits="userSpaceOnUse"><stop offset="0" style="stop-color:#4c4b4b"/><stop offset="1" style="stop-color:#3a3838"/></linearGradient><circle cx="448" cy="288" r="4" fill="url(#SVGID_48_)"/><path fill="#FFF" d="M494,292c0,3.314-2.686,6-6,6h-8c-3.314,0-6-2.686-6-6v-8c0-3.314,2.686-6,6-6h8c3.314,0,6,2.686,6,6V292z"/><linearGradient id="SVGID_49_" x1="484" x2="484" y1="283.792" y2="292.514" gradientUnits="userSpaceOnUse"><stop offset="0" style="stop-color:#4c4b4b"/><stop offset="1" style="stop-color:#3a3838"/></linearGradient><circle cx="484" cy="288" r="4" fill="url(#SVGID_49_)"/><linearGradient id="SVGID_50_" x1="466" x2="466" y1="292.083" y2="302.001" gradientUnits="userSpaceOnUse"><stop offset="0" style="stop-color:#ffd3bb"/><stop offset="1" style="stop-color:#ffc4b0"/></linearGradient><path fill="url(#SVGID_50_)" d="M470,298c0,2.209-1.791,4-4,4l0,0c-2.209,0-4-1.791-4-4v-2c0-2.209,1.791-4,4-4l0,0	c2.209,0,4,1.791,4,4V298z"/><linearGradient id="SVGID_51_" x1="467" x2="467" y1="276" y2="301.02" gradientUnits="userSpaceOnUse"><stop offset="0" style="stop-color:#ff7e45"/><stop offset="1" style="stop-color:#f44293"/></linearGradient><path fill="url(#SVGID_51_)" d="M504,276h-24c-4.412,0-8,3.589-8,8v0.369c-0.629-0.224-1.295-0.369-2-0.369h-8	c-0.705,0-1.371,0.145-2,0.369V284c0-4.411-3.588-8-8-8h-22v4h7.113c-0.689,2-1.113,2.537-1.113,4v8c0,4.411,3.588,8,8,8h8	c4.412,0,8-3.589,8-8v-2c0-1.103,0.896-2,2-2h8c1.104,0,2,0.898,2,2v2c0,4.411,3.588,8,8,8h8c4.412,0,8-3.589,8-8v-8	c0-1.464-0.424-2-1.113-4H504V276z M452,296h-8c-2.205,0-4-1.794-4-4v-8c0-2.206,1.795-4,4-4h8c2.205,0,4,1.794,4,4v6v2	C456,294.206,454.205,296,452,296z M492,284v8c0,2.206-1.795,4-4,4h-8c-2.205,0-4-1.794-4-4v-2v-6c0-2.206,1.795-4,4-4h8	C490.205,280,492,281.794,492,284z"/><linearGradient id="SVGID_52_" x1="466" x2="466" y1="308.5" y2="326.347" gradientUnits="userSpaceOnUse"><stop offset="0" style="stop-color:#f9808f"/><stop offset=".391" style="stop-color:#f97792"/><stop offset="1" style="stop-color:#f96099"/></linearGradient><path fill="url(#SVGID_52_)" d="M482,310c0,6-2.58,10.02-6.56,12.92c-2.64,1.94-5.9,3.08-9.44,3.08s-6.8-1.14-9.44-3.08	C452.58,320.02,450,316,450,310H482z"/><path fill="#FFF" d="M480.031,306h-28.062c-1.087,0-1.969,0.882-1.969,1.969V310h32v-2.031C482,306.882,481.119,306,480.031,306z"/><linearGradient id="SVGID_53_" x1="448" x2="448" y1="267.75" y2="272.127" gradientUnits="userSpaceOnUse"><stop offset="0" style="stop-color:#ffc41d"/><stop offset="1" style="stop-color:#ff970d"/></linearGradient><path fill="url(#SVGID_53_)" d="M456,270c0-1.105-0.895-2-2-2h-12c-1.105,0-2,0.895-2,2l0,0c0,1.105,0.895,2,2,2h12	C455.105,272,456,271.105,456,270L456,270z"/><linearGradient id="SVGID_54_" x1="484" x2="484" y1="267.75" y2="272.127" gradientUnits="userSpaceOnUse"><stop offset="0" style="stop-color:#ffc41d"/><stop offset="1" style="stop-color:#ff970d"/></linearGradient><path fill="url(#SVGID_54_)" d="M492,270c0-1.105-0.895-2-2-2h-12c-1.105,0-2,0.895-2,2l0,0c0,1.105,0.895,2,2,2h12	C491.105,272,492,271.105,492,270L492,270z"/><linearGradient id="SVGID_55_" x1="466" x2="466" y1="318" y2="327.056" gradientUnits="userSpaceOnUse"><stop offset="0" style="stop-color:#ea5770"/><stop offset=".552" style="stop-color:#ea4f79"/><stop offset="1" style="stop-color:#ea4684"/></linearGradient><path fill="url(#SVGID_55_)" d="M475.44,322.92c-2.64,1.94-5.9,3.08-9.44,3.08s-6.8-1.14-9.44-3.08c1.36-3.38,5.08-4.92,9.44-4.92	S474.08,319.54,475.44,322.92z"/><path fill="#FFF" d="M470,356c-9.926,0-18-8-18-18h6c0,6,5.383,12,12,12s12-6,12-12h6C488,348,479.926,356,470,356z"/><linearGradient id="SVGID_56_" x1="390" x2="390" y1="288.333" y2="321.224" gradientTransform="matrix(-1 0 0 1 903 0)" gradientUnits="userSpaceOnUse"><stop offset="0" style="stop-color:#ededed"/><stop offset="1" style="stop-color:#ddd"/></linearGradient><path fill="url(#SVGID_56_)" d="M502,320h6c8.837,0,16-7.163,16-16v-14h-4v14c0,6.627-5.373,12-12,12h-6V320z"/><linearGradient id="SVGID_57_" x1="510" x2="510" y1="338.85" y2="387.369" gradientUnits="userSpaceOnUse"><stop offset="0" style="stop-color:#ededed"/><stop offset="1" style="stop-color:#ddd"/></linearGradient><path fill="url(#SVGID_57_)" d="M520,350v36h-20v-36c0-5.52,4.48-10,10-10c2.76,0,5.26,1.12,7.08,2.92	C518.88,344.74,520,347.24,520,350z"/><linearGradient id="SVGID_58_" x1="500" x2="520" y1="403" y2="403" gradientUnits="userSpaceOnUse"><stop offset="0" style="stop-color:#f9d6bd"/><stop offset="1" style="stop-color:#f9ceb2"/></linearGradient><rect width="20" height="42" x="500" y="382" fill="url(#SVGID_58_)"/><linearGradient id="SVGID_59_" x1="470" x2="520" y1="424" y2="424" gradientUnits="userSpaceOnUse"><stop offset="0" style="stop-color:#f9d6bd"/><stop offset="1" style="stop-color:#f9ceb2"/></linearGradient><path fill="url(#SVGID_59_)" d="M470,414h50v10c0,5.523-4.477,10-10,10h-40V414z"/><linearGradient id="SVGID_60_" x1="495.667" x2="418.664" y1="466" y2="466" gradientUnits="userSpaceOnUse"><stop offset="0" style="stop-color:#575c72"/><stop offset="1" style="stop-color:#434556"/></linearGradient><path fill="url(#SVGID_60_)" d="M490,470H352c-3.314,0-6-2.686-6-6v-2h148c1.105,0,2,0.896,2,2v0C496,467.314,493.314,470,490,470z"/><linearGradient id="SVGID_61_" x1="346" x2="470" y1="425" y2="425" gradientUnits="userSpaceOnUse"><stop offset="0" style="stop-color:#575c72"/><stop offset=".461" style="stop-color:#555a6f"/><stop offset=".738" style="stop-color:#4f5367"/><stop offset=".966" style="stop-color:#454759"/><stop offset="1" style="stop-color:#434556"/></linearGradient><path fill="url(#SVGID_61_)" d="M464,470H352c-3.314,0-6-2.686-6-6v-80c0-2.209,1.791-4,4-4h116c2.209,0,4,1.791,4,4v80	C470,467.314,467.314,470,464,470z"/><linearGradient id="SVGID_62_" x1="408" x2="408" y1="436.875" y2="412.828" gradientUnits="userSpaceOnUse"><stop offset="0" style="stop-color:#302926;stop-opacity:0"/><stop offset="1" style="stop-color:#000;stop-opacity:.2"/></linearGradient><circle cx="408" cy="425" r="12" fill="url(#SVGID_62_)"/><linearGradient id="SVGID_63_" x1="471" x2="471" y1="230" y2="184" gradientUnits="userSpaceOnUse"><stop offset="0" style="stop-color:#ffe552"/><stop offset=".311" style="stop-color:#ffcf48"/><stop offset=".738" style="stop-color:#ffb73d"/><stop offset="1" style="stop-color:#ffae39"/></linearGradient><circle cx="471" cy="207" r="23" fill="url(#SVGID_63_)"/><linearGradient id="SVGID_64_" x1="471" x2="471" y1="218" y2="295.041" gradientUnits="userSpaceOnUse"><stop offset="0" style="stop-color:#ffe552"/><stop offset=".06" style="stop-color:#ffdb4e"/><stop offset=".222" style="stop-color:#ffc744"/><stop offset=".407" style="stop-color:#ffb93e"/><stop offset=".631" style="stop-color:#ffb13a"/><stop offset="1" style="stop-color:#ffae39"/></linearGradient><path fill="url(#SVGID_64_)" d="M516,264v28h-6c-3.32,0-6-2.68-6-6v-22c0-2.2-1.8-4-4-4h-66c-2.2,0-4,1.8-4,4	c0,0-0.12,4.8-0.02,10.1c-0.32-0.06-0.64-0.1-0.98-0.1c-1.12,0-2.18,0.38-3,1v-11c0-24.86,20.14-45,45-45S516,239.14,516,264z"/><linearGradient id="SVGID_65_" x1="522" x2="522" y1="280" y2="296.049" gradientUnits="userSpaceOnUse"><stop offset="0" style="stop-color:#ededed"/><stop offset="1" style="stop-color:#ddd"/></linearGradient><path fill="url(#SVGID_65_)" d="M520,296L520,296l-2,0v-16h2v0c3.314,0,6,2.686,6,6v4C526,293.314,523.314,296,520,296z"/><linearGradient id="SVGID_66_" x1="515" x2="515" y1="272" y2="303.325" gradientUnits="userSpaceOnUse"><stop offset="0" style="stop-color:#575c72"/><stop offset=".431" style="stop-color:#515569"/><stop offset="1" style="stop-color:#434556"/></linearGradient><path fill="url(#SVGID_66_)" d="M520,297c0,2.761-2.239,5-5,5l0,0c-2.761,0-5-2.239-5-5v-18c0-2.761,2.239-5,5-5l0,0	c2.761,0,5,2.239,5,5V297z"/><linearGradient id="SVGID_67_" x1="471.001" x2="471.001" y1="209.667" y2="260.815" gradientUnits="userSpaceOnUse"><stop offset="0" style="stop-color:#575c72"/><stop offset=".431" style="stop-color:#515569"/><stop offset="1" style="stop-color:#434556"/></linearGradient><path fill="url(#SVGID_67_)" d="M518.518,256.503c-1.789,0-3.418-1.21-3.875-3.024c-5.035-20.007-22.982-33.98-43.643-33.98	s-38.605,13.972-43.641,33.977c-0.541,2.144-2.721,3.441-4.855,2.902c-2.143-0.539-3.441-2.713-2.902-4.855	c5.932-23.565,27.068-40.023,51.398-40.023c24.332,0,45.469,16.46,51.4,40.027c0.539,2.143-0.76,4.316-2.902,4.855	C519.17,256.464,518.842,256.503,518.518,256.503z"/><linearGradient id="SVGID_68_" x1="485.52" x2="485.52" y1="215.25" y2="185.999" gradientUnits="userSpaceOnUse"><stop offset="0" style="stop-color:#c53b00;stop-opacity:.2"/><stop offset="1" style="stop-color:#db4a26;stop-opacity:0"/></linearGradient><path fill="url(#SVGID_68_)" d="M494,207c0,3.32-0.7,6.48-1.98,9.34c-2.74-1.2-5.6-2.16-8.56-2.84c1.62-3.14,2.54-6.72,2.54-10.5	c0-7.42-3.5-14-8.96-18.2C486.8,187.46,494,196.38,494,207z"/><linearGradient id="SVGID_69_" x1="458" x2="482" y1="335.08" y2="335.08" gradientUnits="userSpaceOnUse"><stop offset="0" style="stop-color:#302926;stop-opacity:0"/><stop offset="1" style="stop-color:#000;stop-opacity:.1"/></linearGradient><path fill="url(#SVGID_69_)" d="M482,332.16v4c-3.8,1.2-7.82,1.84-12,1.84s-8.2-0.64-12-1.84v-4c3.8,1.2,7.82,1.84,12,1.84	S478.2,333.36,482,332.16z"/><linearGradient id="SVGID_70_" x1="456.851" x2="456.851" y1="241.333" y2="224.547" gradientUnits="userSpaceOnUse"><stop offset="0" style="stop-color:#ffffed;stop-opacity:0"/><stop offset="1" style="stop-color:#fff;stop-opacity:.3"/></linearGradient><path fill="url(#SVGID_70_)" d="M445.701,241c-0.799,0-1.598-0.318-2.189-0.948c-1.133-1.209-1.07-3.107,0.137-4.24	c6.582-6.169,15.145-9.963,24.111-10.682c1.67-0.146,3.098,1.099,3.23,2.75c0.133,1.652-1.1,3.099-2.75,3.23	c-7.619,0.611-14.895,3.835-20.486,9.078C447.174,240.732,446.438,241,445.701,241z"/><linearGradient id="SVGID_71_" x1="508" x2="508" y1="409.722" y2="414.172" gradientUnits="userSpaceOnUse"><stop offset="0" style="stop-color:#793a00;stop-opacity:0"/><stop offset="1" style="stop-color:#793a00;stop-opacity:.13"/></linearGradient><polygon fill="url(#SVGID_71_)" points="500 410 500 414 516 414"/><linearGradient id="SVGID_72_" x1="510" x2="510" y1="390.083" y2="385.793" gradientUnits="userSpaceOnUse"><stop offset="0" style="stop-color:#793a00;stop-opacity:0"/><stop offset="1" style="stop-color:#793a00;stop-opacity:.07"/></linearGradient><rect width="20" height="4" x="500" y="386" fill="url(#SVGID_72_)"/><linearGradient id="SVGID_73_" x1="408" x2="408" y1="470.033" y2="468.203" gradientUnits="userSpaceOnUse"><stop offset="0" style="stop-color:#000;stop-opacity:.05"/><stop offset="1" style="stop-color:#302926;stop-opacity:0"/></linearGradient><path fill="url(#SVGID_73_)" d="M470,468c0,1.105-0.895,2-2,2H348c-1.105,0-2-0.895-2-2l0,0c0-1.105,0.895-2,2-2h120	C469.105,466,470,466.895,470,468L470,468z"/><path fill="#CECECE" d="M522,384c0,1.105-0.895,2-2,2h-20c-1.105,0-2-0.895-2-2v-2c0-1.105,0.895-2,2-2h20c1.105,0,2,0.895,2,2V384z"/><linearGradient id="SVGID_74_" x1="405" x2="405" y1="311.875" y2="324.217" gradientTransform="matrix(-1 0 0 1 903 0)" gradientUnits="userSpaceOnUse"><stop offset="0" style="stop-color:#575c72"/><stop offset=".431" style="stop-color:#515569"/><stop offset="1" style="stop-color:#434556"/></linearGradient><circle cx="498" cy="318" r="6" fill="url(#SVGID_74_)"/><linearGradient id="SVGID_75_" x1="204" x2="606" y1="474" y2="474" gradientUnits="userSpaceOnUse"><stop offset="0" style="stop-color:#ededed"/><stop offset="1" style="stop-color:#ddd"/></linearGradient><rect width="402" height="8" x="204" y="470" fill="url(#SVGID_75_)"/><path fill="#E8E8E8" d="M365.191,222.427l1.215,3.921c0.184,0.595,0.65,1.061,1.245,1.245l3.921,1.215	c0.35,0.108,0.35,0.604,0,0.713l-3.921,1.215c-0.595,0.184-1.061,0.65-1.245,1.245l-1.215,3.921c-0.108,0.35-0.604,0.35-0.713,0	l-1.215-3.921c-0.184-0.595-0.65-1.061-1.245-1.245l-3.921-1.215c-0.35-0.108-0.35-0.604,0-0.713l3.921-1.215	c0.595-0.184,1.061-0.65,1.245-1.245l1.215-3.921C364.587,222.077,365.083,222.077,365.191,222.427z"/><path fill="#E8E8E8" d="M197.191,340.427l1.215,3.921c0.184,0.595,0.65,1.061,1.245,1.245l3.921,1.215	c0.35,0.108,0.35,0.604,0,0.713l-3.921,1.215c-0.595,0.184-1.061,0.65-1.245,1.245l-1.215,3.921c-0.108,0.35-0.604,0.35-0.713,0	l-1.215-3.921c-0.184-0.595-0.65-1.061-1.245-1.245l-3.921-1.215c-0.35-0.108-0.35-0.604,0-0.713l3.921-1.215	c0.595-0.184,1.061-0.65,1.245-1.245l1.215-3.921C196.587,340.077,197.083,340.077,197.191,340.427z"/></svg>